<?xml version="1.0" encoding="UTF-8" standalone="no"?>
<svg
   xmlns:dc="http://purl.org/dc/elements/1.1/"
   xmlns:cc="http://creativecommons.org/ns#"
   xmlns:rdf="http://www.w3.org/1999/02/22-rdf-syntax-ns#"
   xmlns:svg="http://www.w3.org/2000/svg"
   xmlns="http://www.w3.org/2000/svg"
   version="1.1"
   id="svg2"
   viewBox="0 0 64 64">
  <metadata
     id="metadata16">
    <rdf:RDF>
      <cc:Work
         rdf:about="">
        <dc:format>image/svg+xml</dc:format>
        <dc:type
           rdf:resource="http://purl.org/dc/dcmitype/StillImage" />
        <dc:title>module-info</dc:title>
      </cc:Work>
    </rdf:RDF>
  </metadata>
  <defs
     id="defs14" />
  <title
     id="title4">module-info</title>
  <g
     style="fill:#8DD02E;fill-opacity:1"
     id="g6"
     fill-rule="evenodd"
     fill="none">
    <path
       style="fill:#8DD02E;fill-opacity:1"
       id="path8"
       fill="#8DD02E"
       d="M0 0h64v64H0z" />
  </g>
  <g
     style="fill:#ffffff"
     transform="matrix(1.8022599,0,0,1.8022599,-54.91724,69.898305)"
     id="g69">
    <path
       style="fill:#ffffff"
       d="M 12,2 C 17.514,2 22,6.486 22,12 22,17.514 17.514,22 12,22 6.486,22 2,17.514 2,12 2,6.486 6.486,2 12,2 Z M 12,0 C 5.373,0 0,5.373 0,12 0,18.627 5.373,24 12,24 18.627,24 24,18.627 24,12 24,5.373 18.627,0 12,0 Z m 1.25,17 c 0,0.69 -0.559,1.25 -1.25,1.25 -0.689,0 -1.25,-0.56 -1.25,-1.25 0,-0.69 0.561,-1.25 1.25,-1.25 0.691,0 1.25,0.56 1.25,1.25 z M 14.643,7.002 C 14.035,6.386 13.128,6.047 12.092,6.047 c -2.18,0 -3.59,1.55 -3.59,3.95 h 2.011 c 0,-1.486 0.829,-2.013 1.538,-2.013 0.634,0 1.307,0.421 1.364,1.226 0.062,0.847 -0.39,1.277 -0.962,1.821 -1.412,1.343 -1.438,1.993 -1.432,3.468 h 2.005 c -0.013,-0.664 0.03,-1.203 0.935,-2.178 0.677,-0.73 1.519,-1.638 1.536,-3.022 C 15.508,8.375 15.213,7.58 14.643,7.002 Z"
       id="path129" />
  </g>
  <path
     d="m 45.333332,26.569093 c 0,0 -9.511329,-0.611494 -12.833329,3.558782 3.666666,-8.990609 12.833329,-10.904053 12.833329,-10.904053 V 15.551189 L 54.5,22.896454 45.333332,30.276616 Z M 10.547669,54 h 43.90283 L 32.500003,32.685864 Z m 3.067166,-25.708441 18.866834,-13.750346 5.597162,4.072954 c 1.305335,-0.84287 2.550169,-1.478239 3.580501,-1.935481 L 32.481669,10 10.5,26.021868 V 48.931764 L 23.978667,35.844333 Z M 42.495332,37.274822 54.5,48.931764 V 27.608447 Z"
     id="path2"
     style="fill:#ffffff;stroke-width:1.8348248" />
</svg>
