<?xml version="1.0" encoding="utf-8"?>
<!-- Generator: Adobe Illustrator 26.2.1, SVG Export Plug-In . SVG Version: 6.00 Build 0)  -->
<svg version="1.1" id="Ebene_1" xmlns="http://www.w3.org/2000/svg" xmlns:xlink="http://www.w3.org/1999/xlink" x="0px" y="0px"
	 viewBox="0 0 800 142.9" style="enable-background:new 0 0 800 142.9;" xml:space="preserve">
<style type="text/css">
	.st0{fill:#989898;}
	.st1{fill:#1F1F1F;}
	.st2{fill:#404040;}
	.st3{fill:#DEDEDE;}
	.st4{clip-path:url(#SVGID_00000074440014710312753280000018239309349650378408_);fill:#c3c3c3;}
	.st5{clip-path:url(#SVGID_00000105409314245442151920000002759880269946008254_);}
	.st6{fill:#4A4F4D;}
	.st7{fill:#8DD02E;}
	.st8{fill:none;}
	.st9{fill:#FFFFFF;}
	.st10{fill:#FFFFFF;stroke:#4A4F4D;stroke-width:1.8;stroke-linecap:round;stroke-miterlimit:10;}
	.st11{fill:#4A4F4D;stroke:#4A4F4D;stroke-width:0.25;stroke-miterlimit:10;}
	.st12{fill:#17E58C;}
</style>
<g>
	<defs>
		<rect id="SVGID_1_" x="2.7" y="5.4" width="793.5" height="132.9"/>
	</defs>
	<clipPath id="SVGID_00000047055167142637951400000014237447578041456032_">
		<use xlink:href="#SVGID_1_"  style="overflow:visible;"/>
	</clipPath>
	<path id="Pfad_6861" style="clip-path:url(#SVGID_00000047055167142637951400000014237447578041456032_);fill:#c3c3c3;" d="
		M211.4,113.7c-15.5,0-20.4-7.7-20.4-20.2V69c0-13,5.1-20.2,20.4-20.2h52.2V25.3h14.6v88.4H211.4z M263.5,66.5c0-3.6-1.4-5-4.6-5
		h-48.8c-3.2,0-4.6,1.4-4.6,5V96c0,3.6,1.4,5,4.6,5H259c3.2,0,4.6-1.4,4.6-5L263.5,66.5z"/>
	<path id="Pfad_6862" style="clip-path:url(#SVGID_00000047055167142637951400000014237447578041456032_);fill:#c3c3c3;" d="
		M288.8,48.8h14.6v64.9h-14.6V48.8z M289,25.3h14.1v14.4H289V25.3z"/>
	<path id="Pfad_6863" style="clip-path:url(#SVGID_00000047055167142637951400000014237447578041456032_);fill:#c3c3c3;" d="
		M387.8,113.7V66.2c0-3.3-0.6-4.7-4-4.7h-49c-4,0-5.4,1.4-5.4,5.4v46.8h-14.6V48.8H386c11.2,0.4,16.4,4.8,16.4,17.4v47.5H387.8z"/>
	<path id="Pfad_6864" style="clip-path:url(#SVGID_00000047055167142637951400000014237447578041456032_);fill:#c3c3c3;" d="
		M476.7,138.3h-25.7l9.1-12.7h16.1c7,0,8.3-1.8,8.3-9.7v-2.2h-52.7c-13.2,0-20.4-6.1-20.4-20.2V69c0-16,6.3-20.2,20.4-20.2h66.8
		v64.9C498.5,132.1,492.1,138.3,476.7,138.3 M484.4,66.8c0-3.7-1.1-5.2-4.7-5.2h-49.1c-3.6,0-4.7,1.5-4.7,5.2v29
		c0,3.7,1.1,5.2,4.7,5.2h49.1c3.6,0,4.7-1.5,4.7-5.2L484.4,66.8z"/>

		<rect id="Rechteck_1325" x="514.3" y="99.3" style="clip-path:url(#SVGID_00000047055167142637951400000014237447578041456032_);fill:#c3c3c3;" width="14.1" height="14.4"/>
	<path id="Pfad_6865" style="clip-path:url(#SVGID_00000047055167142637951400000014237447578041456032_);fill:#c3c3c3;" d="
		M653.8,113.7V66.2c0-3.9-1.2-4.7-4-4.7h-31.3c-2.5,0-4,1.4-4,4.7v47.5h-14.6V66.2c0-3.3-1.5-4.7-4-4.7h-33c-2.5,0-4,1.4-4,4.7v47.5
		h-14.6V48.8h108.3c10.2,0,16,5,16,17.1v47.8H653.8z"/>
	<path id="Pfad_6866" style="clip-path:url(#SVGID_00000047055167142637951400000014237447578041456032_);fill:#c3c3c3;" d="
		M738.1,113.6l-57.4,0.1v-12.8h57c3.8,0,6.8-3.1,6.8-6.8c0,0,0,0,0-0.1c0-3.6-3-6.4-6.5-6.4c-0.1,0-0.2,0-0.3,0l-41.9-0.1
		c-10.6-0.1-19.1-8.6-19.2-19.2c-0.2-10.4,8-19.1,18.4-19.3c0.1,0,0.1,0,0.2,0h56.7v12.7h-56c-3.5,0.2-6.1,3.2-6.1,6.6
		c0,3.3,2.7,6,6.1,6.1h42.5c10.4-0.2,19,8.1,19.2,18.5c0,0.4,0,0.8,0,1.2c0.1,10.7-8.4,19.5-19.2,19.6
		C738.3,113.6,738.2,113.6,738.1,113.6"/>
	<path id="Pfad_6867" style="clip-path:url(#SVGID_00000047055167142637951400000014237447578041456032_);fill:#c3c3c3;" d="
		M161.9,49h-50.9c-5,0-9.6,2.5-12.3,6.7C91.8,66.5,78.5,87.1,73,95.9c-0.3,0.4-0.5,0.8-0.7,1.2c-1.6,2.6-4.5,4.1-7.5,4.1H25.7
		c-5.2,0-7.4-1.9-7.4-6.6V68.3c0-4.7,2.2-6.6,7.4-6.6h46.4L81.2,49H23.1C7.4,49,2.7,56.7,2.7,69.2v24.6c0,13.1,5.5,20.2,20.4,20.2
		h45.5c1.8,0.1,3.6,0.1,5.5,0c3.7-0.2,7-2.2,9-5.4c2.7-4.3,7.6-12.1,7.6-12.1l1.8-2.8l1.9,2.8c0,0,4.8,7.8,7.6,12.1
		c2,3.1,5.3,5.1,9,5.4c1.8,0.1,3.6,0.1,5.5,0h45.5c14.9,0,20.4-7,20.4-20.2V69.2C182.3,56.7,177.6,49,161.9,49 M166.7,94.6
		c0,4.7-2.2,6.6-7.4,6.6h-39.1c-3,0-5.9-1.5-7.5-4.1c-0.2-0.3-7.4-11.4-11.5-17.6l1-1.6c0.9-1.6,3.5-5.7,6.1-9.9
		c2.5-3.9,6.8-6.3,11.4-6.3h39.5c5.2,0,7.4,1.9,7.4,6.6V94.6z"/>

		<rect id="Rechteck_1326" x="718.3" y="5.4" style="clip-path:url(#SVGID_00000047055167142637951400000014237447578041456032_);fill:#c3c3c3;" width="33" height="33"/>

		<rect id="Rechteck_1327" x="763.2" y="5.4" style="clip-path:url(#SVGID_00000047055167142637951400000014237447578041456032_);fill:#c3c3c3;" width="33" height="33"/>

		<rect id="Rechteck_1328" x="763.2" y="48.6" style="clip-path:url(#SVGID_00000047055167142637951400000014237447578041456032_);fill:#c3c3c3;" width="33" height="33"/>
</g>
</svg>
