<?xml version="1.0" encoding="UTF-8"?>
<svg xmlns="http://www.w3.org/2000/svg" viewBox="0 0 16 16">
  <path fill="#FFF" d="M1 1h14v14H1z"></path>
  <path fill="#999" d="M14 2v12H2V2h12m1-1H1v14h14V1z"></path>
  <path fill="#59F" d="M3 5h6v6H3V5z"></path>
  <path fill="#FFF" d="M7 10H4l.8-1 .8-1 .8 1 .6 1z"></path>
  <path fill="#FFF" d="M8 10H5.3l.7-.7.7-.7.7.7.6.7z"></path>
  <circle fill="#FFF" cx="7.5" cy="7.5" r=".5"></circle>
  <path fill="#B9B9B9" d="M10 5h3v1h-3zm0 2h3v1h-3zm0 2h3v1h-3zm0 2h3v1h-3z"></path>
  <path fill="#666" d="M10 3h3v1h-3z"></path>
</svg>
