<?xml version="1.0" encoding="UTF-8" standalone="no"?>
<svg
   xmlns:dc="http://purl.org/dc/elements/1.1/"
   xmlns:cc="http://creativecommons.org/ns#"
   xmlns:rdf="http://www.w3.org/1999/02/22-rdf-syntax-ns#"
   xmlns:svg="http://www.w3.org/2000/svg"
   xmlns="http://www.w3.org/2000/svg"
   xmlns:sodipodi="http://sodipodi.sourceforge.net/DTD/sodipodi-0.dtd"
   xmlns:inkscape="http://www.inkscape.org/namespaces/inkscape"
   width="16"
   height="16"
   viewBox="0 0 16 16"
   version="1.1"
   id="svg4"
   sodipodi:docname="iconmonstr-user-20.svg"
   inkscape:version="0.92.5 (2060ec1f9f, 2020-04-08)">
  <metadata
     id="metadata10">
    <rdf:RDF>
      <cc:Work
         rdf:about="">
        <dc:format>image/svg+xml</dc:format>
        <dc:type
           rdf:resource="http://purl.org/dc/dcmitype/StillImage" />
        <dc:title></dc:title>
      </cc:Work>
    </rdf:RDF>
  </metadata>
  <defs
     id="defs8" />
  <sodipodi:namedview
     pagecolor="#ffffff"
     bordercolor="#666666"
     borderopacity="1"
     objecttolerance="10"
     gridtolerance="10"
     guidetolerance="10"
     inkscape:pageopacity="0"
     inkscape:pageshadow="2"
     inkscape:window-width="1920"
     inkscape:window-height="1133"
     id="namedview6"
     showgrid="false"
     inkscape:zoom="9.8333333"
     inkscape:cx="12.20339"
     inkscape:cy="12"
     inkscape:window-x="760"
     inkscape:window-y="1440"
     inkscape:window-maximized="1"
     inkscape:current-layer="svg4" />
  <path
     d="M 8,0 C 3.582,0 0,3.582 0,8 c 0,4.418 3.582,8 8,8 4.418,0 8,-3.582 8,-8 C 16,3.582 12.418,0 8,0 Z m 5.168667,12.203333 c -0.174,-0.390666 -0.526,-0.660666 -1.247334,-0.827333 C 10.392667,11.023333 8.9693333,10.714 9.6593333,9.412667 11.756,5.451333 10.214667,3.333333 8,3.333333 c -2.2586667,0 -3.7626667,2.199334 -1.6593333,6.079334 0.7106666,1.309333 -0.7653334,1.618 -2.262,1.963333 C 3.356,11.542667 3.0066667,11.814667 2.834,12.206667 1.8973333,11.058 1.3333333,9.594 1.3333333,8 1.3333333,4.324 4.324,1.3333333 8,1.3333333 11.676,1.3333333 14.666667,4.324 14.666667,8 c 0,1.592667 -0.563334,3.055333 -1.498,4.203333 z"
     id="path2"
     inkscape:connector-curvature="0"
     style="stroke-width:0.66666669" />
</svg>
