<?xml version="1.0" encoding="UTF-8" standalone="no"?>
<svg
   xmlns:dc="http://purl.org/dc/elements/1.1/"
   xmlns:cc="http://creativecommons.org/ns#"
   xmlns:rdf="http://www.w3.org/1999/02/22-rdf-syntax-ns#"
   xmlns:svg="http://www.w3.org/2000/svg"
   xmlns="http://www.w3.org/2000/svg"
   version="1.1"
   id="svg2"
   viewBox="0 0 64 64">
  <metadata
     id="metadata16">
    <rdf:RDF>
      <cc:Work
         rdf:about="">
        <dc:format>image/svg+xml</dc:format>
        <dc:type
           rdf:resource="http://purl.org/dc/dcmitype/StillImage" />
        <dc:title>module-info</dc:title>
      </cc:Work>
    </rdf:RDF>
  </metadata>
  <defs
     id="defs14" />
  <title
     id="title4">module-info</title>
  <g
     style="fill:#8DD02E;fill-opacity:1"
     id="g6"
     fill-rule="evenodd"
     fill="none">
    <path
       style="fill:#8DD02E;fill-opacity:1"
       id="path8"
       fill="#8DD02E"
       d="M0 0h64v64H0z" />
  </g>
  <path
     style="fill:#ffffff"
     id="path4-3"
     d="m 44.976966,50.610168 -24.328843,0 -0.0041,-1.263598 c 0,-2.553565 0.202825,-4.028103 3.220859,-4.72582 3.415572,-0.788988 6.782465,-1.492791 5.161894,-4.480401 -4.798838,-8.849248 -1.367039,-13.869163 3.784711,-13.869163 5.052368,0 8.571379,4.833317 3.784712,13.871192 -1.571892,2.969355 1.675333,3.675185 5.161893,4.4804 3.02209,0.697718 3.222887,2.174283 3.222887,4.731904 l -0.0041,1.255486 z m 9.757904,-4.490542 c -2.616441,-0.604418 -5.050339,-1.133791 -3.871926,-3.360808 3.587971,-6.778407 0.951248,-10.402886 -2.839549,-10.402886 -2.565734,0 -4.559502,1.657078 -4.559502,4.713649 0,7.916254 4.600067,3.59 4.555446,13.540587 l 9.129147,0 0.0041,-0.939079 c 0,-1.918723 -0.150091,-3.028175 -2.417672,-3.551463 z m -46.2562382,4.490542 9.1291472,0 c -0.0426,-9.950587 4.555446,-5.622305 4.555446,-13.540587 0,-3.056571 -1.993768,-4.713649 -4.559502,-4.713649 -3.790797,0 -6.42752,3.624479 -2.83752,10.402886 1.178413,2.229045 -1.255486,2.75639 -3.871926,3.360808 -2.2696115,0.523288 -2.4197014,1.63274 -2.4197014,3.551463 l 0.00407,0.939079 z" />
</svg>
